<mxfile host="65bd71144e">
    <diagram id="gRC5p6lSlWNpRSB2eHs0" name="customLayout">
        <mxGraphModel dx="180" dy="166" grid="1" gridSize="1" guides="1" tooltips="1" connect="1" arrows="1" fold="1" page="1" pageScale="1" pageWidth="200" pageHeight="100" math="0" shadow="0">
            <root>
                <mxCell id="0"/>
                <mxCell id="1" parent="0"/>
                <mxCell id="4" value="&lt;font color=&quot;#ffffff&quot; style=&quot;font-size: 4px;&quot;&gt;{&quot;key&quot;: &quot;background&quot;, &quot;type&quot;: &quot;&lt;/font&gt;&lt;span style=&quot;color: rgb(255, 255, 255);&quot;&gt;pixmap&quot;}&lt;/span&gt;" style="rounded=0;whiteSpace=wrap;html=1;fillColor=#000000;strokeColor=none;movable=1;resizable=1;rotatable=1;deletable=1;editable=1;connectable=1;labelPosition=center;verticalLabelPosition=middle;align=left;verticalAlign=top;fontSize=4;spacingLeft=6;spacing=0;" vertex="1" parent="1">
                    <mxGeometry width="200" height="100" as="geometry"/>
                </mxCell>
                <object label="{&quot;key&quot;:&quot;title&quot;, &quot;type&quot;:&quot;text&quot;, &quot;font&quot;:{&quot;size&quot;:16, &quot;weight&quot;:600}, &quot;alignment&quot;:&quot;left&quot;}" id="5">
                    <mxCell style="rounded=0;whiteSpace=wrap;html=1;fontSize=4;fontColor=#FFFFFF;fillColor=#6666FF;strokeColor=none;verticalAlign=top;align=left;spacing=0;spacingLeft=6;" vertex="1" parent="1">
                        <mxGeometry x="16" y="10" width="136" height="24" as="geometry"/>
                    </mxCell>
                </object>
                <mxCell id="6" value="{&quot;key&quot;:&quot;icon&quot;, &quot;type&quot;:&quot;pixmap&quot;}" style="rounded=0;whiteSpace=wrap;html=1;fontSize=4;fontColor=#FFFFFF;fillColor=#6666FF;strokeColor=none;verticalAlign=top;align=left;spacing=0;spacingLeft=6;" vertex="1" parent="1">
                    <mxGeometry x="16" y="40" width="48" height="48" as="geometry"/>
                </mxCell>
                <mxCell id="7" value="{&quot;key&quot;:&quot;gainValue&quot;, &quot;type&quot;:&quot;text&quot;, &quot;font&quot;:{&quot;size&quot;:16, &quot;weight&quot;:600}, &quot;alignment&quot;:&quot;right&quot;}" style="rounded=0;whiteSpace=wrap;html=1;fontSize=4;fontColor=#FFFFFF;fillColor=#6666FF;strokeColor=none;verticalAlign=top;align=left;spacing=0;spacingLeft=6;" vertex="1" parent="1">
                    <mxGeometry x="76" y="40" width="108" height="24" as="geometry"/>
                </mxCell>
                <mxCell id="8" value="{&quot;key&quot;:&quot;levelMeter&quot;, &quot;type&quot;:&quot;pixmap&quot;}" style="rounded=0;whiteSpace=wrap;html=1;fontSize=4;fontColor=#FFFFFF;fillColor=#6666FF;strokeColor=none;verticalAlign=top;align=left;spacing=0;spacingLeft=6;" vertex="1" parent="1">
                    <mxGeometry x="76" y="68" width="108" height="8" as="geometry"/>
                </mxCell>
                <mxCell id="9" value="{&quot;key&quot;:&quot;gainSlider&quot;, &quot;type&quot;:&quot;pixmap&quot;}" style="rounded=0;whiteSpace=wrap;html=1;fontSize=4;fontColor=#FFFFFF;fillColor=#6666FF;strokeColor=none;verticalAlign=top;align=left;spacing=0;spacingLeft=6;" vertex="1" parent="1">
                    <mxGeometry x="76" y="80" width="108" height="8" as="geometry"/>
                </mxCell>
            </root>
        </mxGraphModel>
    </diagram>
    <diagram name="indicatorLayout" id="8Op-dqdAiXIAyYBQg95h">
        <mxGraphModel dx="237" dy="202" grid="1" gridSize="1" guides="1" tooltips="1" connect="1" arrows="1" fold="1" page="1" pageScale="1" pageWidth="200" pageHeight="100" math="0" shadow="0">
            <root>
                <mxCell id="zf-_htT1ZFLxrwi-bp1Y-0"/>
                <mxCell id="zf-_htT1ZFLxrwi-bp1Y-1" parent="zf-_htT1ZFLxrwi-bp1Y-0"/>
                <mxCell id="zf-_htT1ZFLxrwi-bp1Y-2" value="&lt;font color=&quot;#ffffff&quot; style=&quot;font-size: 4px;&quot;&gt;{&quot;key&quot;: &quot;background&quot;, &quot;type&quot;: &quot;&lt;/font&gt;&lt;span style=&quot;color: rgb(255, 255, 255);&quot;&gt;pixmap&quot;}&lt;/span&gt;" style="rounded=0;whiteSpace=wrap;html=1;fillColor=#000000;strokeColor=none;movable=1;resizable=1;rotatable=1;deletable=1;editable=1;connectable=1;labelPosition=center;verticalLabelPosition=middle;align=left;verticalAlign=top;fontSize=4;spacingLeft=6;spacing=0;" vertex="1" parent="zf-_htT1ZFLxrwi-bp1Y-1">
                    <mxGeometry width="200" height="100" as="geometry"/>
                </mxCell>
                <object label="{&quot;key&quot;:&quot;title&quot;, &quot;type&quot;:&quot;text&quot;, &quot;font&quot;:{&quot;size&quot;:16, &quot;weight&quot;:600}, &quot;alignment&quot;:&quot;left&quot;}" id="zf-_htT1ZFLxrwi-bp1Y-3">
                    <mxCell style="rounded=0;whiteSpace=wrap;html=1;fontSize=4;fontColor=#FFFFFF;fillColor=#6666FF;strokeColor=none;verticalAlign=top;align=left;spacing=0;spacingLeft=6;" vertex="1" parent="zf-_htT1ZFLxrwi-bp1Y-1">
                        <mxGeometry x="16" y="10" width="136" height="24" as="geometry"/>
                    </mxCell>
                </object>
                <mxCell id="zf-_htT1ZFLxrwi-bp1Y-4" value="{&quot;key&quot;:&quot;icon&quot;, &quot;type&quot;:&quot;pixmap&quot;}" style="rounded=0;whiteSpace=wrap;html=1;fontSize=4;fontColor=#FFFFFF;fillColor=#6666FF;strokeColor=none;verticalAlign=top;align=left;spacing=0;spacingLeft=6;" vertex="1" parent="zf-_htT1ZFLxrwi-bp1Y-1">
                    <mxGeometry x="16" y="40" width="48" height="48" as="geometry"/>
                </mxCell>
                <mxCell id="zf-_htT1ZFLxrwi-bp1Y-5" value="{&quot;key&quot;:&quot;gainValue&quot;, &quot;type&quot;:&quot;text&quot;, &quot;font&quot;:{&quot;size&quot;:24, &quot;weight&quot;:600}, &quot;alignment&quot;:&quot;right&quot;}" style="rounded=0;whiteSpace=wrap;html=1;fontSize=4;fontColor=#FFFFFF;fillColor=#6666FF;strokeColor=none;verticalAlign=top;align=left;spacing=0;spacingLeft=6;" vertex="1" parent="zf-_htT1ZFLxrwi-bp1Y-1">
                    <mxGeometry x="76" y="40" width="108" height="32" as="geometry"/>
                </mxCell>
                <mxCell id="zf-_htT1ZFLxrwi-bp1Y-6" value="{&amp;quot;key&amp;quot;:&amp;quot;indicator&amp;quot;,&amp;quot;type&amp;quot;:&amp;quot;bar&amp;quot;,&amp;quot;value&amp;quot;:0,&amp;quot;subtype&amp;quot;:4,&amp;quot;border_w&amp;quot;:0}" style="rounded=0;whiteSpace=wrap;fontSize=3;fontColor=#FFFFFF;fillColor=#6666FF;strokeColor=none;verticalAlign=top;align=left;spacing=0;spacingLeft=6;html=1;" vertex="1" parent="zf-_htT1ZFLxrwi-bp1Y-1">
                    <mxGeometry x="76" y="74" width="108" height="12" as="geometry"/>
                </mxCell>
            </root>
        </mxGraphModel>
    </diagram>
</mxfile>